<svg data-v-0dd9719b="" version="1.0" xmlns="http://www.w3.org/2000/svg" xmlns:xlink="http://www.w3.org/1999/xlink" width="100%" height="100%" viewBox="0 0 340.000000 250.000000" preserveAspectRatio="xMidYMid meet" color-interpolation-filters="sRGB" style="margin: auto;"> <rect data-v-0dd9719b="" x="0" y="0" width="100%" height="100%" fill="#fff" fill-opacity="1" class="background"></rect> <rect data-v-0dd9719b="" x="0" y="0" width="100%" height="100%" fill="url(#watermark)" fill-opacity="1" class="watermarklayer"></rect> <g data-v-0dd9719b="" fill="#333" class="icon-text-wrapper icon-svg-group iconsvg" transform="translate(48.459999084472656,95.03805160522461)"><g class="iconsvg-imagesvg" transform="translate(0,0)"><g><rect fill="#333" fill-opacity="0" stroke-width="2" x="0" y="0" width="60" height="59.9238966512529" class="image-rect"></rect> <svg x="0" y="0" width="60" height="59.9238966512529" filtersec="colorsb6619790921" class="image-svg-svg primary" style="overflow: visible;"><svg xmlns="http://www.w3.org/2000/svg" viewBox="-0.013412523083388805 0 100.12681579589844 100"><g fill-rule="evenodd"><path d="M50.05 64.56a33.61 33.61 0 0 1-33.61-33.62 2.25 2.25 0 0 1 4.5 0 29.11 29.11 0 0 0 29.11 29.12 9 9 0 1 1 0 18 2.25 2.25 0 1 1 0-4.49 4.5 4.5 0 0 0 3.19-1.33 4.51 4.51 0 0 0-3.19-7.69zm0-12.31a21.31 21.31 0 0 1-2.25-42.5V0a50.05 50.05 0 0 0 0 100v-9.74a21.27 21.27 0 0 1-13.54-6.9 2.24 2.24 0 1 1 3.32-3 17 17 0 0 0 5.66 4.1 16.82 16.82 0 1 0 6.81-32.2z" fill="#0d72ff"></path><path d="M50.05 35.45a33.63 33.63 0 0 1 33.62 33.62 2.25 2.25 0 0 1-4.5 0A29.12 29.12 0 0 0 50.05 40a9 9 0 0 1 0-18 2.25 2.25 0 0 1 0 4.5 4.51 4.51 0 1 0 0 9zm0 12.3a21.32 21.32 0 0 1 2.25 42.51V100a50.05 50.05 0 0 0 0-100v9.75a21.36 21.36 0 0 1 13.55 6.89 2.24 2.24 0 0 1-3.33 3 16.82 16.82 0 1 0-12.47 28.1z" fill="#0daeff"></path></g></svg></svg> <!----></g></g> <g transform="translate(67,0.9706993103027344)"><g data-gra="path-name" fill-rule="" class="tp-name iconsvg-namesvg" transform="translate(0,0)"><g transform="scale(1)"><g><path d="M18.81-36.72C15.79-32.35 8.37-27.86 1.17-25.2L4.46-17.77C6.66-18.81 8.73-19.84 10.66-20.93L10.66-18.09 33.93-18.09 33.93-20.93C35.95-19.71 38.02-18.77 40.14-17.82L43.34-25.2C36.77-27.45 29.29-31.81 26.05-36.72ZM16.61-24.66C18.9-26.32 20.84-27.99 22.45-29.74 24.12-27.9 26.01-26.23 28.13-24.66ZM6.03 4.5L38.56 4.5 38.56-15.12 6.03-15.12ZM13.14-8.5L31.45-8.5 31.45-2.21 13.14-2.21ZM48.42-15.75C48.42-5.58 46.98-1.89 45.18 2.75L50.94 5.89C52.52 1.93 53.73-3.06 53.95-7.42L57.38-7.42 57.38-3.51C57.38-2.25 57.06-2.11 56.02-1.98L54.13-1.8 56.16 5.22 58.54 4.95C61.92 4.59 62.73 3.96 62.73 0.54L62.73-35.46 48.42-35.46ZM80.59-8.55C80.55-7.79 80.41-6.3 80.19-4.91 79.97-3.1 79.56-2.7 77.94-2.56 76.54-2.48 75.15-2.48 73.75-2.56 72-2.7 71.28-3.15 71.41-5.44L71.41-12.01 85.41-12.01 85.41-35.1 64.84-35.1 64.84-2.07C64.84 2.83 66.51 4.32 70.47 4.46 73.89 4.59 77.31 4.59 80.73 4.46 85.14 4.32 86.13 2.97 86.85-1.44 87.16-3.01 87.25-4.14 87.3-6.3ZM72.85-28.3L72.85-18.77 70.92-18.77 70.92-28.3ZM79.47-18.77L77.4-18.77 77.4-28.3 79.47-28.3ZM57.38-28.17L57.38-24.25 54.18-24.25 54.18-28.17ZM54.18-13.99L54.18-17.91 57.38-17.91 57.38-13.99ZM123.3-4.14L127.75-6.93C126.72-8.87 125.05-11.25 123.66-13.18L128.25-13.18 128.25-20.75 114.88-20.75 114.88-27.36 129.47-27.36 129.47-34.88 93.19-34.88 93.19-27.36 107.23-27.36 107.23-20.75 94.41-20.75 94.41-13.18 107.23-13.18 107.23-4.14 91.03-4.14 91.03 3.69 131.63 3.69 131.63-4.14ZM114.88-13.18L121.63-13.18 117.13-10.53C118.35-8.78 119.83-6.25 120.91-4.14L114.88-4.14ZM175.18-20.79L175.18-28.35 169.6-28.35 172.03-30.46C170.86-32.27 168.25-35.14 166.68-36.59L161.95-32.85C163.03-31.63 164.38-29.92 165.6-28.35L159.57-28.35 159.57-36.54 152.05-36.72 152.05-28.35 136.98-28.35 136.98-20.79 150.25-20.79C147.15-15.75 141.34-10.39 134.28-5.85L139.27 1.4C144.36-2.38 148.68-6.61 152.05-11.34L152.05 5.08 159.57 5.08 159.57-11.43C163.03-6.75 167.8-2.34 172.84 1.4L177.25-6.25C170.05-10.8 164.16-16.2 161.14-20.79Z" transform="translate(-1.1700000762939453, 36.720001220703125)"></path></g> <!----> <!----> <!----> <!----> <!----> <!----> <!----></g></g> <g data-gra="path-slogan" fill-rule="" class="tp-slogan iconsvg-slogansvg" fill="#333" transform="translate(5,48.61000061035156)"><rect x="0" height="1" y="4.185000419616699" width="9.419998168945312"></rect> <rect height="1" y="4.185000419616699" width="9.419998168945312" x="156.66000366210938"></rect> <g transform="translate(12.419998168945312,0)"><g transform="scale(1)"><path d="M2.06-5.06L6.56-5.06L6.56-8.58L7.73-8.58L7.73 0L6.56 0L6.56-3.98L2.06-3.98L2.06 0L0.89 0L0.89-8.58L2.06-8.58L2.06-5.06ZM10.83-1.03L15.98-1.03L15.98 0L9.66 0L9.66-8.58L15.89-8.58L15.89-7.59L10.83-7.59L10.83-4.92L15.52-4.92L15.52-3.89L10.83-3.89L10.83-1.03ZM23.02-3.89L18.80-3.89L18.80 0L17.63 0L17.63-8.58L23.58-8.58L23.58-7.59L18.80-7.59L18.80-4.92L23.02-4.92L23.02-3.89ZM26.06-1.03L31.22-1.03L31.22 0L24.89 0L24.89-8.58L31.13-8.58L31.13-7.59L26.06-7.59L26.06-4.92L30.75-4.92L30.75-3.89L26.06-3.89L26.06-1.03ZM32.91-8.58L34.08-8.58L34.08 0L32.91 0L32.91-8.58ZM38.67-1.92L38.67-2.77L39.75-2.77L39.75-2.16Q39.75-0.75 41.06-0.75L41.06-0.75Q42.42-0.75 42.42-2.25L42.42-2.25L42.42-8.58L43.59-8.58L43.59-2.30Q43.55 0.09 41.11 0.14L41.11 0.14Q38.81 0.09 38.67-1.92L38.67-1.92ZM51.05 0L50.20-2.48L46.73-2.48L45.84 0L44.67 0L47.91-8.58L49.22-8.58L52.31 0L51.05 0ZM48.47-7.31L47.11-3.52L49.78-3.52L48.52-7.31L48.47-7.31ZM56.86 0L53.39 0L53.39-8.58L56.91-8.58Q60.38-8.39 60.52-4.41L60.52-4.41Q60.33-0.09 56.86 0L56.86 0ZM56.72-7.64L54.56-7.64L54.56-0.98L56.81-0.98Q59.25-1.13 59.34-4.31L59.34-4.31Q59.30-7.55 56.72-7.64L56.72-7.64ZM63.28-1.03L68.44-1.03L68.44 0L62.11 0L62.11-8.58L68.34-8.58L68.34-7.59L63.28-7.59L63.28-4.92L67.97-4.92L67.97-3.89L63.28-3.89L63.28-1.03ZM75.47-7.59L72.56-7.59L72.56-8.58L79.50-8.58L79.50-7.59L76.59-7.59L76.59 0L75.47 0L75.47-7.59ZM81.84-1.03L87-1.03L87 0L80.67 0L80.67-8.58L86.91-8.58L86.91-7.59L81.84-7.59L81.84-4.92L86.53-4.92L86.53-3.89L81.84-3.89L81.84-1.03ZM95.67-6.05L95.67-6.05L94.55-6.05Q94.13-7.78 92.16-7.83L92.16-7.83Q89.44-7.69 89.34-4.36L89.34-4.36Q89.34-0.80 92.20-0.80L92.20-0.80Q94.17-0.84 94.64-3.19L94.64-3.19L95.77-3.19Q95.25 0.05 91.97 0.14L91.97 0.14Q88.22 0 88.13-4.31L88.13-4.31Q88.31-8.63 92.16-8.81L92.16-8.81Q95.20-8.72 95.67-6.05ZM98.30-5.06L102.80-5.06L102.80-8.58L103.97-8.58L103.97 0L102.80 0L102.80-3.98L98.30-3.98L98.30 0L97.13 0L97.13-8.58L98.30-8.58L98.30-5.06ZM107.16-8.58L111.47-1.64L111.47-8.58L112.59-8.58L112.59 0L111.28 0L106.92-6.94L106.88-6.94L106.88 0L105.75 0L105.75-8.58L107.16-8.58ZM114.56-8.58L115.73-8.58L115.73 0L114.56 0L114.56-8.58ZM122.72-1.08L121.83-1.78L122.44-2.48L123.52-1.64Q124.50-2.63 124.50-4.27L124.50-4.27Q124.31-7.64 121.50-7.83L121.50-7.83Q118.64-7.69 118.50-4.27L118.50-4.27Q118.64-0.94 121.50-0.80L121.50-0.80Q122.20-0.80 122.72-1.08L122.72-1.08ZM124.45-0.94L125.58-0.05L125.02 0.56L123.70-0.33Q122.86 0.14 121.50 0.14L121.50 0.14Q117.56 0 117.28-4.27L117.28-4.27Q117.52-8.72 121.50-8.81L121.50-8.81Q125.39-8.67 125.67-4.27L125.67-4.27Q125.63-2.20 124.45-0.94L124.45-0.94ZM132.70-3.19L132.70-8.58L133.88-8.58L133.88-3.05Q133.73 0.05 130.36 0.14L130.36 0.14Q127.22 0.05 127.08-2.86L127.08-2.86L127.08-8.58L128.25-8.58L128.25-3.19Q128.30-0.84 130.41-0.80L130.41-0.80Q132.70-0.84 132.70-3.19L132.70-3.19ZM136.97-1.03L142.13-1.03L142.13 0L135.80 0L135.80-8.58L142.03-8.58L142.03-7.59L136.97-7.59L136.97-4.92L141.66-4.92L141.66-3.89L136.97-3.89L136.97-1.03Z" transform="translate(-0.890625, 8.8125)"></path></g></g></g></g></g><defs v-gra="od"></defs></svg>